<svg xmlns="http://www.w3.org/2000/svg" version="1.1" xmlns:xlink="http://www.w3.org/1999/xlink" viewBox="2.730000000000004 3.24 294.55 294.55" width="40" height="40" fill="none"><svg id="Capa_1" data-name="Capa 1" xmlns="http://www.w3.org/2000/svg" viewBox="0 0 300 300" fill="#d86e41" stroke="#d86e41"><defs fill="#d86e41" stroke="#d86e41"><style fill="#d86e41" stroke="#d86e41">.cls-1{fill:#d86e41;}</style></defs><title fill="#d86e41" stroke="#d86e41">descargar</title><path class="cls-1" d="M263.09,117.12H215.38a8.44,8.44,0,0,1-8.44-8.44v-91A14.45,14.45,0,0,0,192.49,3.24h-85A14.45,14.45,0,0,0,93.06,17.69v91a8.44,8.44,0,0,1-8.44,8.44H36.91a8.44,8.44,0,0,0-6,14.41l107.3,106.69a16.62,16.62,0,0,0,23.52,0l107.3-106.69A8.44,8.44,0,0,0,263.09,117.12Z" fill="#d86e41" stroke="#d86e41"></path><rect class="cls-1" x="17.14" y="257.44" width="265.73" height="40.35" rx="8.44" fill="#d86e41" stroke="#d86e41"></rect></svg></svg>