<svg xmlns="http://www.w3.org/2000/svg" version="1.1" xmlns:xlink="http://www.w3.org/1999/xlink" viewBox="4.204977013357654 -17.57393361188818 116.76726694522151 116.76726694522151" width="40" height="40" fill="none"><svg id="Capa_1" data-name="Capa 1" xmlns="http://www.w3.org/2000/svg" viewBox="0 0 300 300" height="100px" width="100px" transform="rotate(0) scale(1, 1)" fill="#d86e41" stroke="#d86e41"><defs fill="#d86e41" stroke="#d86e41"><style fill="#d86e41" stroke="#d86e41">.cls-1 { fill: #d86e41; }.cls-2 { fill: #d86e41; }</style></defs><title fill="#d86e41" stroke="#d86e41">experimentar</title><path class="cls-1" d="M207.91,259.85c-3.6-6.38-7.32-12.7-11-19q-7.66-13.27-15.32-26.54-8.13-14.05-16.27-28.1c-5.39-9.35-10.71-18.74-16.15-28.05A19.56,19.56,0,0,1,146.47,148q0-22.08,0-44.16,0-6.59,0-13.18c0-1.84,0-3.68,0-5.52,0-1,.31-1.28,1.24-1.19.67.07,3.75,0,4.44,0a4.41,4.41,0,0,0,4.29-3.27,4.11,4.11,0,0,0-2.14-4.91,7.63,7.63,0,0,0-3.24-.6l-22.33,0a4.4,4.4,0,0,0-4.4,4.4h0a4.4,4.4,0,0,0,4.4,4.4h7.73c1,0,1.18.31,1.18,1.22,0,20.72,0,41.43,0,62.15a31.16,31.16,0,0,0,4.66,16.52c3.87,6.46,7.57,13,11.33,19.55L163.69,201q5,8.73,10.09,17.44,5.15,8.9,10.31,17.79,3.15,5.45,6.28,10.92c3.36,5.85,6.87,11.62,10,17.58a15.53,15.53,0,0,1-.93,16.84,16.71,16.71,0,0,1-13.93,7.24H47.7A16.51,16.51,0,0,1,33.47,264c1.86-3.26,3.78-6.49,5.66-9.74q5.13-8.9,10.25-17.82,5.26-9.13,10.55-18.24Q66,207.64,72.08,197.1c3.73-6.46,7.5-12.91,11.22-19.38,3.15-5.47,6.33-10.93,9.4-16.45A25.92,25.92,0,0,0,96,148.69q0-23.5,0-47c0-5.49,0-11,0-16.47A1.23,1.23,0,0,1,97.17,84h8.77a4.4,4.4,0,0,0,4.4-4.4h0a4.39,4.39,0,0,0-4.39-4.39H86.3c-.59,0-3.57,0-4.15.1a4.13,4.13,0,0,0-3.69,3.38A4.44,4.44,0,0,0,82.91,84c1.8,0,4.18-.4,4.18,1.83q0,6,0,12.05,0,25.09,0,50.19a16.66,16.66,0,0,1-1.53,7.73c-1.05,2.05-2.18,4.06-3.33,6.06Q75,174.44,67.72,187q-6.54,11.33-13.06,22.67-8.47,14.68-17,29.34c-3.85,6.67-7.67,13.35-11.57,20a26.47,26.47,0,0,0-3.8,14.18A25.54,25.54,0,0,0,39.56,296.3a26.56,26.56,0,0,0,8.52,1.28c6.94,0,13.88,0,20.82,0H185.33a24.91,24.91,0,0,0,9.59-1.61c9-3.69,14.31-10.43,16-19.92A23.77,23.77,0,0,0,207.91,259.85Z" fill="#d86e41" stroke="#d86e41"></path><circle class="cls-2" cx="126.47" cy="188.95" r="8.75" fill="#d86e41" stroke="#d86e41"></circle><circle class="cls-2" cx="119.02" cy="152.17" r="5.72" fill="#d86e41" stroke="#d86e41"></circle><path class="cls-2" d="M191.81,262.75c-4-6.86-8-13.75-11.94-20.63L169.63,224.4q-5.07-8.78-10.11-17.58a1.77,1.77,0,0,0-1.79-1q-40.87,0-81.74,0a1.91,1.91,0,0,0-1.9,1.12c-1.24,2.22-2.52,4.42-3.79,6.62Q65.17,222.5,60,231.41c-2.79,4.86-5.55,9.73-8.35,14.58-1.9,3.28-3.86,6.53-5.77,9.8-1.41,2.42-2.8,4.85-4.2,7.27-2.83,4.91-2.8,9.8.4,14.47a12.63,12.63,0,0,0,11.15,5.62c21.17-.05,42.34,0,63.51,0H180.1a18.13,18.13,0,0,0,3.09-.13,13.26,13.26,0,0,0,10.55-10.43A13.71,13.71,0,0,0,191.81,262.75Zm-100-52.47a7.2,7.2,0,0,1,6.95,7.18,7.08,7.08,0,0,1-7.13,6.88,7,7,0,0,1-7-7A7.11,7.11,0,0,1,91.81,210.28Zm9.57,53.54a9.85,9.85,0,0,1-19.62-1.63,9.85,9.85,0,1,1,19.62,1.63Zm11-13.74a4.35,4.35,0,0,1-4.49-4.46,4.47,4.47,0,0,1,8.95,0A4.33,4.33,0,0,1,112.35,250.08Zm10.46-24.19a6,6,0,1,1,.1-12,6.05,6.05,0,0,1,5.88,6A6,6,0,0,1,122.82,225.89Zm24.41,34.7a14.23,14.23,0,1,1,14.23-14.23A14.23,14.23,0,0,1,147.23,260.59Z" fill="#d86e41" stroke="#d86e41"></path><path class="cls-1" d="M256.62,56.48a14,14,0,1,1-14,14,14,14,0,0,1,14-14m0-8.37A22.37,22.37,0,1,0,279,70.48a22.4,22.4,0,0,0-22.37-22.37Z" fill="#d86e41" stroke="#d86e41"></path><path class="cls-1" d="M203.7,12.2a17.7,17.7,0,1,1-6.44,24.2,17.7,17.7,0,0,1,6.44-24.2M199.5,5a26.09,26.09,0,0,0-13,22.56c8.32,6.27,13.24,14,14.5,23.36A26.08,26.08,0,1,0,199.5,5Z" fill="#d86e41" stroke="#d86e41"></path><path class="cls-1" d="M231.45,92.19a31.23,31.23,0,0,0-24.13-47.33A41,41,0,0,0,148.79,21a22.81,22.81,0,0,0-39.06,19.73A28.73,28.73,0,0,0,96.08,65.14a28.43,28.43,0,0,0,3.82,14.25h10.43A20.24,20.24,0,0,1,120.65,45.3a14.41,14.41,0,1,1,25.48-12.17,32.59,32.59,0,0,1,54.48,20.39A22.86,22.86,0,0,1,219.92,93.1a17.5,17.5,0,1,1-26.23,15.16s0,0,0-.07a21.27,21.27,0,0,1-34.55-19.77,32.64,32.64,0,0,1-17.44-12.34,20.4,20.4,0,0,1-2.67,3.3h3.1v9.3a41.26,41.26,0,0,0,8.46,5.42,29.7,29.7,0,0,0,37.66,26.14,25.87,25.87,0,1,0,43.19-28.05Z" fill="#d86e41" stroke="#d86e41"></path></svg></svg>