<svg xmlns="http://www.w3.org/2000/svg" viewBox="0 0 860 418" width="860" height="418" role="img" aria-labelledby="t d" font-family="-apple-system, Segoe UI, Helvetica, Arial, sans-serif">
<title id="t">Estimated migration effort by option</title>
<desc id="d">Horizontal bars with min-max whiskers; engineering estimates in person-weeks.</desc>
<rect width="860" height="418" rx="8" fill="#ffffff" stroke="#d0d7de"/>
<text x="20" y="30" font-size="17" font-weight="600" fill="#1f2328">Estimated migration effort by option</text>
<text x="20" y="48" font-size="12" fill="#57606a">Engineering estimate, not an implementation measurement. Bar = midpoint, whisker = min-max.</text>
<line x1="170" y1="60" x2="170" y2="368" stroke="#eaeef2"/>
<text x="164" y="386" font-size="12" fill="#57606a">0</text>
<line x1="250" y1="60" x2="250" y2="368" stroke="#eaeef2"/>
<text x="244" y="386" font-size="12" fill="#57606a">20</text>
<line x1="330" y1="60" x2="330" y2="368" stroke="#eaeef2"/>
<text x="324" y="386" font-size="12" fill="#57606a">40</text>
<line x1="410" y1="60" x2="410" y2="368" stroke="#eaeef2"/>
<text x="404" y="386" font-size="12" fill="#57606a">60</text>
<line x1="490" y1="60" x2="490" y2="368" stroke="#eaeef2"/>
<text x="484" y="386" font-size="12" fill="#57606a">80</text>
<line x1="570" y1="60" x2="570" y2="368" stroke="#eaeef2"/>
<text x="564" y="386" font-size="12" fill="#57606a">100</text>
<line x1="650" y1="60" x2="650" y2="368" stroke="#eaeef2"/>
<text x="644" y="386" font-size="12" fill="#57606a">120</text>
<line x1="730" y1="60" x2="730" y2="368" stroke="#eaeef2"/>
<text x="724" y="386" font-size="12" fill="#57606a">140</text>
<text x="20" y="87" font-size="13" fill="#1f2328" >TinyMCE 8</text>
<rect x="170" y="74" width="124" height="18" fill="#6e9fd6"/>
<line x1="250" y1="83" x2="338" y2="83" stroke="#1f2328" stroke-width="2"/>
<line x1="250" y1="75" x2="250" y2="91" stroke="#1f2328" stroke-width="2"/>
<line x1="338" y1="75" x2="338" y2="91" stroke="#1f2328" stroke-width="2"/>
<text x="346" y="87" font-size="12" fill="#57606a">20-42 (medium-low)</text>
<text x="20" y="131" font-size="13" fill="#1f2328" >HugeRTE</text>
<rect x="170" y="118" width="116" height="18" fill="#6e9fd6"/>
<line x1="246" y1="127" x2="326" y2="127" stroke="#1f2328" stroke-width="2"/>
<line x1="246" y1="119" x2="246" y2="135" stroke="#1f2328" stroke-width="2"/>
<line x1="326" y1="119" x2="326" y2="135" stroke="#1f2328" stroke-width="2"/>
<text x="334" y="131" font-size="12" fill="#57606a">19-39 (medium-low)</text>
<text x="20" y="175" font-size="13" fill="#1f2328" >CKEditor 5</text>
<rect x="170" y="162" width="241" height="18" fill="#6e9fd6"/>
<line x1="336" y1="171" x2="486" y2="171" stroke="#1f2328" stroke-width="2"/>
<line x1="336" y1="163" x2="336" y2="179" stroke="#1f2328" stroke-width="2"/>
<line x1="486" y1="163" x2="486" y2="179" stroke="#1f2328" stroke-width="2"/>
<text x="494" y="175" font-size="12" fill="#57606a">41.5-79 (low)</text>
<text x="20" y="219" font-size="13" fill="#1f2328" >Tiptap</text>
<rect x="170" y="206" width="273" height="18" fill="#6e9fd6"/>
<line x1="356" y1="215" x2="530" y2="215" stroke="#1f2328" stroke-width="2"/>
<line x1="356" y1="207" x2="356" y2="223" stroke="#1f2328" stroke-width="2"/>
<line x1="530" y1="207" x2="530" y2="223" stroke="#1f2328" stroke-width="2"/>
<text x="538" y="219" font-size="12" fill="#57606a">46.5-90 (low)</text>
<text x="20" y="263" font-size="13" fill="#1f2328" >ProseKit</text>
<rect x="170" y="250" width="275" height="18" fill="#6e9fd6"/>
<line x1="356" y1="259" x2="534" y2="259" stroke="#1f2328" stroke-width="2"/>
<line x1="356" y1="251" x2="356" y2="267" stroke="#1f2328" stroke-width="2"/>
<line x1="534" y1="251" x2="534" y2="267" stroke="#1f2328" stroke-width="2"/>
<text x="542" y="263" font-size="12" fill="#57606a">46.5-91 (low)</text>
<text x="20" y="307" font-size="13" fill="#1f2328" >Lexical</text>
<rect x="170" y="294" width="309" height="18" fill="#6e9fd6"/>
<line x1="384" y1="303" x2="574" y2="303" stroke="#1f2328" stroke-width="2"/>
<line x1="384" y1="295" x2="384" y2="311" stroke="#1f2328" stroke-width="2"/>
<line x1="574" y1="295" x2="574" y2="311" stroke="#1f2328" stroke-width="2"/>
<text x="582" y="307" font-size="12" fill="#57606a">53.5-101 (low)</text>
<text x="20" y="351" font-size="13" fill="#1f2328" >Gutenberg</text>
<rect x="170" y="338" width="377" height="18" fill="#6e9fd6"/>
<line x1="424" y1="347" x2="670" y2="347" stroke="#1f2328" stroke-width="2"/>
<line x1="424" y1="339" x2="424" y2="355" stroke="#1f2328" stroke-width="2"/>
<line x1="670" y1="339" x2="670" y2="355" stroke="#1f2328" stroke-width="2"/>
<text x="678" y="351" font-size="12" fill="#57606a">63.5-125 (very low)</text>
<text x="170" y="404" font-size="12" fill="#57606a">person-weeks, total of ten cost categories (evaluation.json)</text>
</svg>
